M48
;DRILL file {kicad (after 2015-mar-04 BZR unknown)-product} date 15/07/2015 23:29:06
;FORMAT={-:-/ absolute / inch / decimal}
FMAT,2
INCH,TZ
T1C0.016
T2C0.030
T3C0.031
T4C0.039
T5C0.040
T6C0.049
%
G90
G05
M72
T1
X4.7Y-4.12
X4.72Y-4.02
X4.82Y-3.59
X4.88Y-3.67
X4.89Y-3.59
X4.89Y-4.1
X5.03Y-3.83
X5.22Y-3.83
X5.26Y-3.72
X5.35Y-3.68
X5.42Y-3.81
X5.42Y-3.86
T2
X4.1985Y-3.1341
X4.1985Y-4.6144
X4.3009Y-3.1341
T3
X4.3009Y-4.6144
T4
X4.51Y-3.91
X4.61Y-3.91
X4.71Y-3.91
T5
X5.39Y-3.92
X5.39Y-4.02
X5.39Y-4.12
X5.39Y-4.22
X5.39Y-4.32
T6
X4.7224Y-4.49
X4.92Y-4.49
X5.1176Y-4.49
T0
M30
